<?xml version="1.0" encoding="utf-8"?>
<!-- Generator: Adobe Illustrator 25.0.0, SVG Export Plug-In . SVG Version: 6.00 Build 0)  -->
<svg version="1.1" id="Layer_1" xmlns="http://www.w3.org/2000/svg" xmlns:xlink="http://www.w3.org/1999/xlink" x="0px" y="0px"
	 viewBox="0 0 453.1 333.2" style="enable-background:new 0 0 453.1 333.2;" xml:space="preserve">
<style type="text/css">
	.st0{fill:#00B1DD;}
	.st1{fill:none;}
</style>
<g id="Layer_1_1_">
	<g>
		<g>
			<path class="st0" d="M46.1,111.6C28.9,129.7,0,140.2,0,167.4c0,26.1,29.8,36.6,45.6,53.2c14.1,14.9,66.1,112.6,181.3,112.6
				c7.7,0,15.1-0.5,22.4-1.4L135,22.9C86.1,50.5,61.6,95.2,46.1,111.6z M407.1,110.6C397.9,97.3,339,0,226.3,0
				c-7.8,0-15.3,0.4-22.4,1.2L317.6,309c49.3-27.9,78.6-71.8,89.5-87.4c11-15.7,46.1-29.2,46.1-55.3
				C453.1,141.3,416.3,123.9,407.1,110.6z"/>
		</g>
	</g>
</g>
<path class="st1" d="M317.6,309.1c-19.7,10.8-42.5,18.2-68.4,22.8L135,22.9c19.3-10.7,44.9-19,68.8-21.7L317.6,309.1z"/>
</svg>
