<?xml version="1.0" encoding="utf-8"?>
<!-- Generator: Adobe Illustrator 27.1.0, SVG Export Plug-In . SVG Version: 6.00 Build 0)  -->
<svg version="1.1" id="Layer_1" xmlns="http://www.w3.org/2000/svg" xmlns:xlink="http://www.w3.org/1999/xlink" x="0px" y="0px"
	 viewBox="0 0 296.2 27" style="enable-background:new 0 0 296.2 27;" xml:space="preserve">
<style type="text/css">
	.st0{fill:#FFFFFF;}
</style>
<g id="Layer_1_1_">
	<g>
		<g>
			<path class="st0" d="M3.7,9C2.3,10.5,0,11.4,0,13.5c0,2.1,2.4,3,3.7,4.3C4.8,19.1,9,27,18.4,27c0.6,0,1.2,0,1.8-0.1l-9.2-25
				C7,4.1,5,7.7,3.7,9z M32.9,8.9C32.2,7.9,27.4,0,18.3,0c-0.6,0-1.2,0-1.8,0.1L25.7,25c4-2.3,6.4-5.8,7.2-7.1
				c0.9-1.3,3.7-2.4,3.7-4.5C36.7,11.4,33.7,10,32.9,8.9z"/>
		</g>
	</g>
</g>
<g id="Layer_2_00000062905805247798682120000015472164584401442964_">
	<path class="st0" d="M61.3,1.2H42.5c-0.2,0-0.4,0.2-0.4,0.4v4.4c0,0.2,0.2,0.4,0.4,0.4l6.5,0v19.1c0,0.2,0.2,0.5,0.4,0.5l5,0
		c0.2,0,0.4-0.2,0.4-0.4V6.5l6.4,0c0.2,0,0.4-0.2,0.4-0.4V1.6C61.7,1.4,61.5,1.2,61.3,1.2z"/>
	<path class="st0" d="M241.8,1.1h-4.3c-1.2,0-1.4,0.8-1.7,1.3l-5.2,9.3l-5.2-9.3c-0.3-0.5-0.5-1.3-1.7-1.3h-4.4
		c-0.2,0-0.4,0.2-0.4,0.4v24c0,0.2,0.2,0.4,0.4,0.4h5c0.2,0,0.4-0.2,0.4-0.4V12.1l3.8,6.6c0.2,0.3,0.5,0.8,1.1,0.8h1.9
		c0.6,0,0.9-0.5,1.1-0.8l3.8-6.6v13.4c0,0.2,0.2,0.4,0.4,0.4c0,0,0.6,0,0.6,0l4.3,0c0.2,0,0.4-0.2,0.4-0.4v-24
		C242.3,1.3,242.1,1.1,241.8,1.1z"/>
	<path class="st0" d="M295.7,1.2h-4.9c-0.2,0-0.4,0.2-0.4,0.4v13.7l-8-12.9c-0.5-0.8-0.8-1.3-1.7-1.3h-4.2c-0.2,0-0.4,0.2-0.4,0.4
		v23.9c0,0.2,0.2,0.4,0.4,0.4h5c0.2,0,0.4-0.2,0.4-0.4V11.8l8,12.9c0.5,0.8,0.8,1.3,1.7,1.3l4.1,0c0.2,0,0.4-0.2,0.4-0.4V1.6
		C296.2,1.4,296,1.2,295.7,1.2z"/>
	<path class="st0" d="M186.9,20.7h-11.5V1.6c0-0.2-0.2-0.4-0.4-0.4h-5c-0.2,0-0.4,0.2-0.4,0.4v10.8l5,13.6l12.4,0
		c0.2,0,0.4-0.2,0.4-0.4v-4.4C187.4,20.9,187.2,20.7,186.9,20.7z"/>
	<path class="st0" d="M85.4,20.7h-12v-5h10.1c0.9,0,1.1-0.4,1.1-1.1v-2.9c0-0.7-0.2-1.1-1.1-1.1H73.3V6.5h11.4
		c0.9,0,1.1-0.4,1.1-1.1V2.3c0-0.7-0.2-1.1-1.1-1.1H67.8c-0.2,0-0.4,0.2-0.4,0.4v23.9c0,0.2,0.2,0.5,0.4,0.5h17.6
		c0.9,0,1.1-0.4,1.1-1.1v-3.1C86.5,21.1,86.3,20.7,85.4,20.7z"/>
	<path class="st0" d="M108,17.1c2.3-0.8,5.2-3.6,5.2-7.5c0-2.4-0.8-4.6-2.2-5.9c-1.6-1.6-3.4-2.4-7.5-2.4H93.4
		c-0.2,0-0.4,0.2-0.4,0.4l0,23.9c0,0.2,0.2,0.5,0.4,0.5l5,0c0.2,0,0.4-0.2,0.4-0.4V6.5h5c2,0,3.5,1.2,3.5,3.2c0,1.8-1.7,3.1-3.6,3.1
		H103c-0.9,0-1.1,0.4-1.1,1.1v3c0,1.1,0.1,1.5,0.4,1.9l4.1,6.1c0.5,0.8,1,1.1,1.9,1.1h4.5c0.7,0,0.9-0.7,0.6-1.2L108,17.1z"/>
	<path class="st0" d="M134.5,17.1c2.3-0.8,5.2-3.6,5.2-7.5c0-2.4-0.8-4.6-2.2-5.9c-1.6-1.6-3.4-2.4-7.5-2.4H120
		c-0.2,0-0.4,0.2-0.4,0.4v23.9c0,0.2,0.2,0.5,0.4,0.5l5,0c0.2,0,0.4-0.2,0.4-0.4V6.5h5c2,0,3.5,1.2,3.5,3.2c0,1.8-1.7,3.1-3.6,3.1
		h-0.8c-0.9,0-1.1,0.4-1.1,1.1v3c0,1.1,0.1,1.5,0.4,1.9l4.1,6.1c0.5,0.8,1,1.1,1.9,1.1h4.5c0.7,0,0.9-0.7,0.6-1.2L134.5,17.1z"/>
	<path class="st0" d="M159.1,2.3c-0.3-0.8-0.7-1.2-1.5-1.2h-3.6c-0.8,0-1.2,0.4-1.5,1.2L144,25c-0.2,0.5-0.2,1.1,0.6,1.1h4
		c0.8,0,1.1-0.2,1.4-1.1l1.1-3h9.2l1.1,3c0.3,0.9,0.6,1.1,1.4,1.1h4c0.8,0,0.8-0.6,0.6-1.1L159.1,2.3z M152.9,16.6l2.8-8.3l2.8,8.3
		H152.9z"/>
	<path class="st0" d="M210.9,20.7h-12v-5H209c0.9,0,1.1-0.4,1.1-1.1v-2.9c0-0.7-0.2-1.1-1.1-1.1h-10.1V6.5h11.4
		c0.9,0,1.1-0.4,1.1-1.1V2.3c0-0.7-0.2-1.1-1.1-1.1h-16.9c-0.2,0-0.4,0.2-0.4,0.4v23.9c0,0.2,0.2,0.4,0.4,0.4l17.6,0
		c0.9,0,1.1-0.4,1.1-1.1v-3.1C212,21.1,211.8,20.7,210.9,20.7z"/>
	<path class="st0" d="M259.1,0.6c-4.5,0-10.1,2.6-10.1,8.5v8.9c0,6,5.6,8.5,10.1,8.5c4.5,0,10.2-2.6,10.2-8.5V9.1
		C269.3,3.2,263.6,0.6,259.1,0.6z M263.4,17.5c0,2.4-1.7,3.8-4.2,3.8c-2.5,0-4.2-1.4-4.2-3.8V9.7c0-2.4,1.7-3.8,4.2-3.8
		c2.5,0,4.2,1.4,4.2,3.8V17.5z"/>
</g>
</svg>
