<?xml version="1.0" encoding="utf-8"?>
<!-- Generator: Adobe Illustrator 24.0.3, SVG Export Plug-In . SVG Version: 6.00 Build 0)  -->
<svg version="1.1" id="Laag_1" xmlns="http://www.w3.org/2000/svg" xmlns:xlink="http://www.w3.org/1999/xlink" x="0px" y="0px"
	 viewBox="0 0 176.22 30" style="enable-background:new 0 0 176.22 30;" xml:space="preserve">
<style type="text/css">
	.st0{fill:#020203;}
</style>
<g>
	<path class="st0" d="M70.35,19.47c-2.47,0-4.47-2-4.47-4.47s2-4.47,4.47-4.47s4.47,2,4.47,4.47
		C74.83,17.47,72.83,19.47,70.35,19.47 M70.35,0c-7.6,0-13.59,5.21-14.78,12.39V3.7c0-2.24-0.96-3.2-3.2-3.2h-7.53v11.31L38.4,3.06
		C37,1.2,35.62,0.5,33.29,0.5H0v7.71c0,2.2,0.95,3.15,3.15,3.15h4.98v14.95c0,2.24,0.96,3.2,3.2,3.2h8.15V11.36h6.88v14.95
		c0,2.24,0.96,3.2,3.2,3.2h7.54V18.2l6.42,8.75c1.4,1.86,2.78,2.56,5.11,2.56h6.95v-11.8C56.75,24.97,62.59,30,70.36,30
		c8.5,0,15-6.51,15-15C85.36,6.29,79.06,0,70.35,0"/>
	<path class="st0" d="M135.82,23.96c0.13-1.53,0.96-2.38,2.15-2.38c1.35,0,2.13,0.82,2.19,2.38H135.82z M135.79,25.24h6.54v-0.32
		c0-2.97-1.7-4.79-4.35-4.79c-2.59,0-4.37,1.94-4.37,4.83c0,2.9,1.76,4.8,4.42,4.8c2.08,0,3.55-1.01,4.21-2.88l-1.97-0.21
		c-0.34,1-1.14,1.55-2.13,1.55c-1.44,0-2.35-1.05-2.35-2.92V25.24z M133.67,17.14c-0.55-0.12-1.14-0.16-1.76-0.16
		c-2.01,0-2.93,1.03-2.93,3.22v0.18h-1.51v1.4h1.51v7.73h2.01v-7.73h2.18v-1.4h-2.22v-0.25c0-1.12,0.44-1.62,1.51-1.62
		c0.3,0,0.69,0.04,1.21,0.12V17.14z M123.75,29.5h2.08v-9.13h-2.08V29.5z M123.75,18.88h2.08v-1.7h-2.08V18.88z M118.73,29.5h2.08
		V17.17h-2.08V29.5z M113.4,20.14c-0.18-0.02-0.34-0.02-0.48-0.02c-1.28,0-2.11,0.73-2.58,2.22v-1.97h-1.86v9.13h2.04v-4.53
		c0-1.8,0.96-2.88,2.44-2.88c0.09,0,0.25,0,0.44,0.02L113.4,20.14L113.4,20.14z M102.44,21.61c1.33,0,2.19,1.19,2.19,3.32
		s-0.85,3.31-2.19,3.31c-1.35,0-2.17-1.16-2.17-3.31C100.27,22.78,101.09,21.61,102.44,21.61 M102.44,20.12
		c-2.58,0-4.35,1.88-4.35,4.81s1.76,4.82,4.35,4.82s4.37-1.88,4.37-4.82C106.81,22,105.04,20.12,102.44,20.12 M97.73,17.14
		c-0.55-0.12-1.14-0.16-1.76-0.16c-2.01,0-2.93,1.03-2.93,3.22v0.18h-1.51v1.4h1.51v7.73h2.01v-7.73h2.18v-1.4h-2.22v-0.25
		c0-1.12,0.44-1.62,1.51-1.62c0.3,0,0.69,0.04,1.21,0.12V17.14z"/>
	<path class="st0" d="M168.53,3.63v9.13h2.01V7.54c0-1.58,0.93-2.6,2.12-2.6c1,0,1.55,0.68,1.55,1.99v5.83h2.01V6.92
		c0-2.36-0.98-3.53-2.97-3.53c-1.22,0-2.17,0.6-2.82,1.81V3.64L168.53,3.63L168.53,3.63z M162.29,4.87c1.33,0,2.19,1.19,2.19,3.32
		s-0.85,3.31-2.19,3.31c-1.35,0-2.17-1.16-2.17-3.31C160.12,6.04,160.94,4.87,162.29,4.87 M162.29,3.38c-2.58,0-4.35,1.88-4.35,4.81
		s1.75,4.82,4.35,4.82c2.59,0,4.37-1.88,4.37-4.82C166.66,5.26,164.89,3.38,162.29,3.38 M154.01,12.76h2.08V3.63h-2.08V12.76z
		 M154.01,2.13h2.08v-1.7h-2.08V2.13z M149.55,1.11l-1.92,0.16l-0.07,2.36h-1.58v1.4h1.53V9.6c0,2.38,0.69,3.41,2.88,3.41
		c0.48,0,0.96-0.07,1.46-0.18v-1.58c-0.35,0.09-0.69,0.12-1.01,0.12c-1.08,0-1.28-0.59-1.28-1.92V5.02h2.04v-1.4h-2.04L149.55,1.11
		L149.55,1.11z M142.46,8.21v0.66c0,1.49-1.07,2.65-2.4,2.65c-1.01,0-1.64-0.55-1.64-1.37c0-1.28,1.19-1.94,3.57-1.94H142.46z
		 M136.51,5.99l1.92,0.23c0.19-0.94,0.91-1.42,2.13-1.42c1.28,0,1.9,0.55,1.9,1.71v0.48h-0.19c-4.04,0-6.01,1.07-6.01,3.27
		c0,1.6,1.23,2.73,3.14,2.73c1.37,0,2.47-0.64,3.09-1.81c0.02,0.59,0.07,1.1,0.2,1.58h2.04c-0.2-0.48-0.27-1.08-0.27-1.81V6.97
		c0-2.49-1.05-3.59-3.69-3.59C138.36,3.38,136.92,4.27,136.51,5.99 M130.15,12.76h1.87l3.23-9.13h-1.69l-2.27,6.95l-2.26-6.95h-2.08
		L130.15,12.76z M121.67,4.87c1.33,0,2.19,1.19,2.19,3.32s-0.86,3.31-2.19,3.31c-1.35,0-2.17-1.16-2.17-3.31
		C119.5,6.04,120.32,4.87,121.67,4.87 M121.67,3.38c-2.58,0-4.35,1.88-4.35,4.81s1.76,4.82,4.35,4.82s4.37-1.88,4.37-4.82
		C126.04,5.26,124.27,3.38,121.67,3.38 M107.79,3.63v9.13h2V7.54c0-1.58,0.93-2.6,2.12-2.6c1,0,1.54,0.68,1.54,1.99v5.83h2.01V6.92
		c0-2.36-0.98-3.53-2.96-3.53c-1.23,0-2.17,0.6-2.83,1.81V3.64L107.79,3.63L107.79,3.63z M97.68,3.63v9.13h2.01V7.54
		c0-1.58,0.93-2.6,2.12-2.6c1,0,1.55,0.68,1.55,1.99v5.83h2V6.92c0-2.36-0.97-3.53-2.96-3.53c-1.22,0-2.17,0.6-2.82,1.81V3.64
		L97.68,3.63L97.68,3.63z M92.37,12.76h2.08V3.63h-2.08V12.76z M92.37,2.13h2.08v-1.7h-2.08V2.13z"/>
</g>
</svg>
